<?xml version="1.0" encoding="UTF-8"?>
<svg version="1.1" xmlns="http://www.w3.org/2000/svg" width="79" height="79">
<path d="M0 0 C3.46874474 2.05005042 5.69845535 4.09536605 7 8 C7.22451458 10.22574335 7.40782878 12.45581519 7.5625 14.6875 C7.68818359 16.45673828 7.68818359 16.45673828 7.81640625 18.26171875 C7.87699219 19.16535156 7.93757813 20.06898437 8 21 C8.7425 20.566875 9.485 20.13375 10.25 19.6875 C16.26239886 16.66691684 23.30558298 15 30 15 C29.938125 13.948125 29.87625 12.89625 29.8125 11.8125 C30.0432821 7.11993058 31.39365069 4.93902521 34.3203125 1.40625 C36.43718439 -0.36601484 37.8343056 -0.51628318 40.5625 -0.75 C41.34753906 -0.82734375 42.13257813 -0.9046875 42.94140625 -0.984375 C45 -1 45 -1 47 0 C47 4.95 47 9.9 47 15 C49.97 15.99 52.94 16.98 56 18 C53.23776722 20.76223278 50.79293383 20.57856291 47 21 C47.01571045 21.74048584 47.0314209 22.48097168 47.04760742 23.24389648 C47.11047539 26.64168473 47.14915441 30.03935004 47.1875 33.4375 C47.21263672 34.60216797 47.23777344 35.76683594 47.26367188 36.96679688 C47.35449564 47.71427592 45.64657749 56.1823141 37.9375 64.125 C30.60777456 68.80354815 22.68653954 71.20069915 14 70 C9.92729534 69.05594394 7.43263645 67.48956229 4.625 64.3125 C0.85822413 56.63407227 1.99119362 51.12079534 4.609375 43.2109375 C6.65612421 38.48501656 9.53090588 34.77117816 13 31 C12.01 31.495 12.01 31.495 11 32 C9.68 32 8.36 32 7 32 C7 31.01 7 30.02 7 29 C0.30167667 34.22440033 -3.78394644 39.11339629 -7 47 C-7.99 46.67 -8.98 46.34 -10 46 C-10 30.82 -10 15.64 -10 0 C-6.71483923 -1.64258039 -3.42237916 -0.93972563 0 0 Z M27 19 C27.33 19.66 27.66 20.32 28 21 C30.97 20.34 33.94 19.68 37 19 C37 18.67 37 18.34 37 18 C33.50765756 17.90021879 30.40562852 18.22157062 27 19 Z M14 25 C14.99 25 15.98 25 17 25 C17 25.66 17 26.32 17 27 C18.65 26.34 20.3 25.68 22 25 C21.34 24.67 20.68 24.34 20 24 C20 23.34 20 22.68 20 22 C17.23776722 22 16.10718546 23.31425163 14 25 Z M10 26 C9.67 26.66 9.34 27.32 9 28 C9.99 27.67 10.98 27.34 12 27 C11.34 26.67 10.68 26.34 10 26 Z M19 33 C13.94134671 38.77218965 11.9153163 44.44074987 11 52 C11.99 52 12.98 52 14 52 C14.99 52.66 15.98 53.32 17 54 C19.99081816 54.46523838 22.0418054 54.57669119 24.6875 52.984375 C27.4091858 50.81226037 28.88816619 49.33550144 30 46 C30.08106686 44.44578271 30.10756898 42.88832973 30.09765625 41.33203125 C30.09282227 39.99301758 30.09282227 39.99301758 30.08789062 38.62695312 C30.07951172 37.69818359 30.07113281 36.76941406 30.0625 35.8125 C30.05798828 34.87212891 30.05347656 33.93175781 30.04882812 32.96289062 C30.03704626 30.64186288 30.02059558 28.32096356 30 26 C25.70200635 26 22.02876752 30.24102186 19 33 Z " fill="#E3191C" transform="translate(21,4)"/>
<path d="M0 0 C0.66 0.66 1.32 1.32 2 2 C4.14143741 2.28062326 4.14143741 2.28062326 6.5 2.1875 C7.2940625 2.18105469 8.088125 2.17460937 8.90625 2.16796875 C11.05836391 2.12675836 11.05836391 2.12675836 13 1 C14.99960012 0.960008 17.00047242 0.95653201 19 1 C19 1.66 19 2.32 19 3 C15.04 4.65 11.08 6.3 7 8 C7 13.94 7 19.88 7 26 C7.99 25.67 8.98 25.34 10 25 C10.33 23.02 10.66 21.04 11 19 C11.33 19 11.66 19 12 19 C12.34596528 27.64913196 11.2598638 32.98820424 5.4375 39.58203125 C4 41 4 41 2 42 C8.02830016 41.7764463 8.02830016 41.7764463 12.875 38.4375 C13.926875 37.2309375 13.926875 37.2309375 15 36 C15.66 36 16.32 36 17 36 C17.33 35.01 17.66 34.02 18 33 C18.33 33.66 18.66 34.32 19 35 C15.71742471 42.22166563 11.09250556 46.30113699 3.8125 49.25 C-2.81068484 51.50527021 -9.17484059 52.25569494 -15.875 49.875 C-20.82190918 46.90685449 -22.53050397 43.84668439 -23.9375 38.3125 C-24.4135942 32.98231492 -22.63159592 28.01462248 -21 23 C-20.67 23 -20.34 23 -20 23 C-19.78175223 29.0018137 -20.4943096 34.19233704 -22 40 C-21.01 40 -20.02 40 -19 40 C-18.85691406 39.28457031 -18.71382812 38.56914063 -18.56640625 37.83203125 C-17.7109375 33.5546875 -16.85546875 29.27734375 -16 25 C-15.34 25.33 -14.68 25.66 -14 26 C-14.103125 26.763125 -14.20625 27.52625 -14.3125 28.3125 C-14.28932094 31.1697501 -14.28932094 31.1697501 -11.875 32.8125 C-8.54172756 34.18928644 -6.57175074 34.52088032 -3 34 C0.33761045 31.84909549 1.73470933 30.79587201 3 27 C3.08106686 25.44578271 3.10756898 23.88832973 3.09765625 22.33203125 C3.09282227 20.99301758 3.09282227 20.99301758 3.08789062 19.62695312 C3.07951172 18.69818359 3.07113281 17.76941406 3.0625 16.8125 C3.05798828 15.87212891 3.05347656 14.93175781 3.04882812 13.96289062 C3.03704626 11.64186288 3.02059558 9.32096356 3 7 C1.02 7.33 -0.96 7.66 -3 8 C-2.74438677 5.6568787 -2.40729228 3.32156597 -2 1 C-1.34 0.67 -0.68 0.34 0 0 Z " fill="#BE1615" transform="translate(47,23)"/>
<path d="M0 0 C0 7.59 0 15.18 0 23 C-0.66 23 -1.32 23 -2 23 C-1.896875 24.051875 -1.79375 25.10375 -1.6875 26.1875 C-2 30 -2 30 -4.3125 32.75 C-5.6428125 33.86375 -5.6428125 33.86375 -7 35 C-7.45375 35.52722656 -7.9075 36.05445313 -8.375 36.59765625 C-10.48547589 38.41895636 -11.93531937 38.48806662 -14.6875 38.6875 C-15.49574219 38.75324219 -16.30398437 38.81898437 -17.13671875 38.88671875 C-17.75160156 38.92410156 -18.36648437 38.96148437 -19 39 C-18.2575 38.278125 -17.515 37.55625 -16.75 36.8125 C-12.32398407 32.2858928 -9.60193667 29.47081925 -9 23 C-9.639375 22.87625 -10.27875 22.7525 -10.9375 22.625 C-11.9584375 22.315625 -11.9584375 22.315625 -13 22 C-14.57378697 18.85242606 -14.30817679 15.51604524 -14.375 12.0625 C-14.43107422 10.96905273 -14.43107422 10.96905273 -14.48828125 9.85351562 C-14.5234375 7.72265625 -14.5234375 7.72265625 -14 4 C-11.63671875 2.07421875 -11.63671875 2.07421875 -9 1 C-8.154375 0.5875 -7.30875 0.175 -6.4375 -0.25 C-4 -1 -4 -1 0 0 Z " fill="#EA171B" transform="translate(67,27)"/>
<path d="M0 0 C0.33 0 0.66 0 1 0 C1.21824777 6.0018137 0.5056904 11.19233704 -1 17 C-0.01 17 0.98 17 2 17 C2.14308594 16.28457031 2.28617188 15.56914063 2.43359375 14.83203125 C3.2890625 10.5546875 4.14453125 6.27734375 5 2 C5.66 2.33 6.32 2.66 7 3 C6.8453125 4.1446875 6.8453125 4.1446875 6.6875 5.3125 C6.71782146 8.14402846 6.71782146 8.14402846 9 9.8125 C12.92093992 11.36453872 15.80167404 11.2134742 20 11 C19.67 11.66 19.34 12.32 19 13 C16.35139573 13.59355614 13.70802678 13.74209269 11 14 C11.33 14.66 11.66 15.32 12 16 C11.34 16 10.68 16 10 16 C10 16.99 10 17.98 10 19 C10.66 19 11.32 19 12 19 C12 19.66 12 20.32 12 21 C21.07768599 23.15237963 21.07768599 23.15237963 30 21 C34.61246576 18.10380057 36.5489064 14.7206247 39 10 C39.495 10.99 39.495 10.99 40 12 C36.71742471 19.22166563 32.09250556 23.30113699 24.8125 26.25 C18.18931516 28.50527021 11.82515941 29.25569494 5.125 26.875 C0.17809082 23.90685449 -1.53050397 20.84668439 -2.9375 15.3125 C-3.4135942 9.98231492 -1.63159592 5.01462248 0 0 Z " fill="#B21817" transform="translate(26,46)"/>
<path d="M0 0 C0 4.95 0 9.9 0 15 C2.97 15.99 5.94 16.98 9 18 C6.23776722 20.76223278 3.79293383 20.57856291 0 21 C0.00523682 21.76143311 0.01047363 22.52286621 0.01586914 23.30737305 C0.03669525 26.76740692 0.04967813 30.22742759 0.0625 33.6875 C0.07087891 34.88568359 0.07925781 36.08386719 0.08789062 37.31835938 C0.09111328 38.47529297 0.09433594 39.63222656 0.09765625 40.82421875 C0.10289307 41.88729248 0.10812988 42.95036621 0.11352539 44.0456543 C0.00716844 46.8134509 -0.37105212 49.30792897 -1 52 C-1.66 52 -2.32 52 -3 52 C-3 50.02 -3 48.04 -3 46 C-2.34 46 -1.68 46 -1 46 C-1.33 36.76 -1.66 27.52 -2 18 C-2.99 17.67 -3.98 17.34 -5 17 C-4.67 15.68 -4.34 14.36 -4 13 C-4.66 13 -5.32 13 -6 13 C-5.67 11.35 -5.34 9.7 -5 8 C-4.01 8 -3.02 8 -2 8 C-2.33 6.02 -2.66 4.04 -3 2 C-5.31 1.67 -7.62 1.34 -10 1 C-10.33 2.32 -10.66 3.64 -11 5 C-12.32 4.67 -13.64 4.34 -15 4 C-9.82217179 -1.73259552 -7.89794519 -1.12827788 0 0 Z " fill="#BB2322" transform="translate(68,4)"/>
<path d="M0 0 C1.75390625 1.546875 1.75390625 1.546875 3 3 C2.37351562 2.9278125 1.74703125 2.855625 1.1015625 2.78125 C0.28429688 2.6884375 -0.53296875 2.595625 -1.375 2.5 C-2.18710937 2.4071875 -2.99921875 2.314375 -3.8359375 2.21875 C-5.96912825 1.96647649 -5.96912825 1.96647649 -8 2 C-8 11.57 -8 21.14 -8 31 C-7.34 31.33 -6.68 31.66 -6 32 C-6.495 34.475 -6.495 34.475 -7 37 C-6.34 37 -5.68 37 -5 37 C-4.79375 36.195625 -4.5875 35.39125 -4.375 34.5625 C-3.92125 33.716875 -3.4675 32.87125 -3 32 C0.125 31.1875 0.125 31.1875 3 31 C2.41992188 31.72703125 2.41992188 31.72703125 1.828125 32.46875 C-1.77941954 37.11212416 -4.52402614 41.66713323 -7 47 C-7.99 46.67 -8.98 46.34 -10 46 C-10 30.82 -10 15.64 -10 0 C-6.81791464 -1.59104268 -3.34332953 -0.92686363 0 0 Z " fill="#A4272C" transform="translate(21,4)"/>
<path d="M0 0 C-1.23724057 5.15516904 -2.90737815 8.61047221 -6 13 C-6.33 13.99 -6.66 14.98 -7 16 C-7.66 16 -8.32 16 -9 16 C-9.12117188 16.59167969 -9.24234375 17.18335937 -9.3671875 17.79296875 C-10.26744643 22.03803585 -11.20456621 26.02439661 -13 30 C-13.99 30 -14.98 30 -16 30 C-16.25706972 24.08739655 -15.2982126 18.76081841 -14 13 C-13.34 13 -12.68 13 -12 13 C-11.90589844 12.42636719 -11.81179687 11.85273437 -11.71484375 11.26171875 C-10.83613307 8.48153579 -9.50981935 6.97034036 -7.5625 4.8125 C-6.94503906 4.11769531 -6.32757813 3.42289063 -5.69140625 2.70703125 C-3.74778383 0.74545389 -2.78022491 0 0 0 Z " fill="#BA1717" transform="translate(41,33)"/>
<path d="M0 0 C2.31 0 4.62 0 7 0 C6.34 1.65 5.68 3.3 5 5 C4.34 5 3.68 5 3 5 C2.67 7.97 2.34 10.94 2 14 C2.66 14.33 3.32 14.66 4 15 C3 16 3 16 0.71484375 16.09765625 C-1.85677083 16.06510417 -4.42838542 16.03255208 -7 16 C-6.67 12.04 -6.34 8.08 -6 4 C-4.35 4 -2.7 4 -1 4 C-0.67 2.68 -0.34 1.36 0 0 Z " fill="#F5161A" transform="translate(58,5)"/>
<path d="M0 0 C0.33 0 0.66 0 1 0 C1.28315124 7.07878106 1.050399 12.61653046 -3.5 18.375 C-4.325 19.24125 -5.15 20.1075 -6 21 C-6.66 21 -7.32 21 -8 21 C-8 20.01 -8 19.02 -8 18 C-8.66 18 -9.32 18 -10 18 C-9.46148009 14.12265667 -8.43874548 12.02404439 -6 9 C-5.30419733 7.68163705 -4.62775567 6.35208914 -4 5 C-4 5.66 -4 6.32 -4 7 C-3.01 6.67 -2.02 6.34 -1 6 C-0.67 4.02 -0.34 2.04 0 0 Z " fill="#C81415" transform="translate(58,42)"/>
<path d="M0 0 C0.495 0.99 0.495 0.99 1 2 C-2.42408615 9.53298954 -7.46630272 13.62942898 -15.03515625 16.58203125 C-19.58251968 17.54936303 -23.97330514 14.90352848 -28 13 C-31.23063216 10.66057671 -31.91487585 7.75619899 -33 4 C-31.68 3.67 -30.36 3.34 -29 3 C-29 3.66 -29 4.32 -29 5 C-28.34 5.33 -27.68 5.66 -27 6 C-27.66 6 -28.32 6 -29 6 C-29 6.99 -29 7.98 -29 9 C-28.34 9 -27.68 9 -27 9 C-27 9.66 -27 10.32 -27 11 C-17.92231401 13.15237963 -17.92231401 13.15237963 -9 11 C-4.38753424 8.10380057 -2.4510936 4.7206247 0 0 Z " fill="#98100D" transform="translate(65,56)"/>
<path d="M0 0 C0.66 0.66 1.32 1.32 2 2 C4.14143741 2.28062326 4.14143741 2.28062326 6.5 2.1875 C7.69109375 2.17783203 7.69109375 2.17783203 8.90625 2.16796875 C11.05836391 2.12675836 11.05836391 2.12675836 13 1 C14.99960012 0.960008 17.00047242 0.95653201 19 1 C19 1.66 19 2.32 19 3 C18.15695313 3.34933594 17.31390625 3.69867187 16.4453125 4.05859375 C15.34960938 4.51363281 14.25390625 4.96867187 13.125 5.4375 C11.48917969 6.11619141 11.48917969 6.11619141 9.8203125 6.80859375 C8.19441376 7.49543463 6.57868226 8.21065887 5 9 C5 8.34 5 7.68 5 7 C2.36 7.33 -0.28 7.66 -3 8 C-2.74438677 5.6568787 -2.40729228 3.32156597 -2 1 C-1.34 0.67 -0.68 0.34 0 0 Z " fill="#C61312" transform="translate(47,23)"/>
<path d="M0 0 C0.33 0 0.66 0 1 0 C1 9.24 1 18.48 1 28 C1.66 28.33 2.32 28.66 3 29 C2.505 31.475 2.505 31.475 2 34 C2.66 34 3.32 34 4 34 C4.20625 33.195625 4.4125 32.39125 4.625 31.5625 C5.07875 30.716875 5.5325 29.87125 6 29 C9.125 28.1875 9.125 28.1875 12 28 C6.03416856 36.6309795 6.03416856 36.6309795 1 39 C-0.25282725 35.24151826 -0.12381835 31.74509081 -0.09765625 27.83203125 C-0.0962413 27.03721848 -0.09482635 26.2424057 -0.09336853 25.42350769 C-0.08777378 22.88646675 -0.07522228 20.34951425 -0.0625 17.8125 C-0.05748432 16.09179815 -0.05292153 14.37109492 -0.04882812 12.65039062 C-0.03780607 8.4335597 -0.02054506 4.21679484 0 0 Z " fill="#CD1E21" transform="translate(12,7)"/>
<path d="M0 0 C1.32 0 2.64 0 4 0 C3.67 2.31 3.34 4.62 3 7 C4.98 6.34 6.96 5.68 9 5 C5.88983545 8.28788824 2.98381075 10.83735988 -1 13 C-0.67 11.68 -0.34 10.36 0 9 C-5.42333183 12.2792239 -9.91999228 15.75997683 -12 22 C-12.66 22 -13.32 22 -14 22 C-12.59787748 17.77089533 -10.58624819 15.12217785 -7.5625 11.875 C-6.38880859 10.60269531 -6.38880859 10.60269531 -5.19140625 9.3046875 C-3 7 -3 7 -1.21484375 5.4453125 C0.42895644 3.80434277 0.42895644 3.80434277 0 0 Z " fill="#B01D1F" transform="translate(41,24)"/>
<path d="M0 0 C3 2 3 2 4 5 C4.22451458 7.22574335 4.40782878 9.45581519 4.5625 11.6875 C4.64628906 12.86699219 4.73007812 14.04648437 4.81640625 15.26171875 C4.87699219 16.16535156 4.93757813 17.06898437 5 18 C5.99 18 6.98 18 8 18 C3.375 21 3.375 21 0 21 C0 21.66 0 22.32 0 23 C-1.32 23 -2.64 23 -4 23 C-4.25 20.6875 -4.25 20.6875 -4 18 C-1.95575462 16.02389614 -0.8823175 15 2 15 C2.21755666 9.5610835 2.10428384 5.12919186 0 0 Z " fill="#BA191A" transform="translate(24,7)"/>
<path d="M0 0 C0.99 0.33 1.98 0.66 3 1 C2.67 5.29 2.34 9.58 2 14 C1.01 14 0.02 14 -1 14 C-3 12 -3 12 -3.1875 8.0625 C-3.16190316 5.32363845 -2.88664156 3.65992468 -2 1 C-1.34 0.67 -0.68 0.34 0 0 Z " fill="#911F23" transform="translate(18,51)"/>
<path d="M0 0 C-2 8 -2 8 -5 11 C-5.99 11 -6.98 11 -8 11 C-8.8125 9.375 -8.8125 9.375 -9 7 C-3.92156863 0 -3.92156863 0 0 0 Z " fill="#D5171D" transform="translate(41,33)"/>
<path d="M0 0 C3.19140455 3.19140455 2.40828726 6.90703876 2.4375 11.25 C2.47037109 12.09691406 2.50324219 12.94382812 2.53710938 13.81640625 C2.57514665 18.26330989 2.38022521 21.11577644 -0.52734375 24.609375 C-1.34332031 25.39828125 -2.15929688 26.1871875 -3 27 C-3.66 26.67 -4.32 26.34 -5 26 C-4.525625 25.566875 -4.05125 25.13375 -3.5625 24.6875 C-0.94783518 21.863662 -0.8476548 19.01168615 -0.68359375 15.33203125 C-0.64169922 14.43935547 -0.59980469 13.54667969 -0.55664062 12.62695312 C-0.51732422 11.69818359 -0.47800781 10.76941406 -0.4375 9.8125 C-0.39431641 8.87212891 -0.35113281 7.93175781 -0.30664062 6.96289062 C-0.20061335 4.64207146 -0.09854971 2.32114675 0 0 Z " fill="#A42224" transform="translate(51,30)"/>
<path d="M0 0 C0 1.98 0 3.96 0 6 C-0.99 6 -1.98 6 -3 6 C-3.33 7.65 -3.66 9.3 -4 11 C-3.34 11 -2.68 11 -2 11 C-2 12.32 -2 13.64 -2 15 C-1.34 15.66 -0.68 16.32 0 17 C-1.98 17 -3.96 17 -6 17 C-6 5.28125 -6 5.28125 -3 1.4375 C-1 0 -1 0 0 0 Z " fill="#CA1314" transform="translate(66,6)"/>
<path d="M0 0 C0.33 0 0.66 0 1 0 C1.21824777 6.0018137 0.5056904 11.19233704 -1 17 C-0.34 17 0.32 17 1 17 C1.99 19.64 2.98 22.28 4 25 C1 24 1 24 -0.625 21.9375 C-4.30761815 14.07008849 -2.58071151 7.9316783 0 0 Z " fill="#8F1B1E" transform="translate(26,46)"/>
<path d="M0 0 C1.32 0.33 2.64 0.66 4 1 C1.03 5.95 1.03 5.95 -2 11 C-3.32 10.67 -4.64 10.34 -6 10 C-4.27256146 6.38060496 -2.52349243 3.12432397 0 0 Z " fill="#942326" transform="translate(24,38)"/>
<path d="M0 0 C1.134375 0.020625 2.26875 0.04125 3.4375 0.0625 C0.85484886 3.15261944 -2.05206659 4.27877918 -5.75 5.75 C-7.38001953 6.40548828 -7.38001953 6.40548828 -9.04296875 7.07421875 C-9.87441406 7.40035156 -10.70585937 7.72648437 -11.5625 8.0625 C-12.2225 7.4025 -12.8825 6.7425 -13.5625 6.0625 C-12.9025 6.0625 -12.2425 6.0625 -11.5625 6.0625 C-11.5625 5.4025 -11.5625 4.7425 -11.5625 4.0625 C-10.428125 3.588125 -9.29375 3.11375 -8.125 2.625 C-2.22916667 0.03910819 -2.22916667 0.03910819 0 0 Z " fill="#E3191F" transform="translate(35.5625,23.9375)"/>
<path d="M0 0 C0 0.66 0 1.32 0 2 C-10.55808656 2.3690205 -10.55808656 2.3690205 -15 0 C-15 -0.33 -15 -0.66 -15 -1 C-9.24494947 -3.80374257 -5.57861091 -2.30582584 0 0 Z " fill="#B41C1C" transform="translate(45,72)"/>
<path d="M0 0 C0.66 0 1.32 0 2 0 C2 4.95 2 9.9 2 15 C4.97 15.99 7.94 16.98 11 18 C8.23776722 20.76223278 5.79293383 20.57856291 2 21 C2 20.34 2 19.68 2 19 C2.66 18.67 3.32 18.34 4 18 C3.01 17.34 2.02 16.68 1 16 C0.61605333 13.22737745 0.39657752 10.65676472 0.3125 7.875 C0.27833984 7.12089844 0.24417969 6.36679688 0.20898438 5.58984375 C0.12645722 3.72708799 0.06155289 1.86356674 0 0 Z " fill="#8D2B2D" transform="translate(66,4)"/>
<path d="M0 0 C0.33 0 0.66 0 1 0 C1.06058594 0.77085938 1.12117187 1.54171875 1.18359375 2.3359375 C1.26738281 3.33882812 1.35117188 4.34171875 1.4375 5.375 C1.51871094 6.37273438 1.59992187 7.37046875 1.68359375 8.3984375 C1.84965626 10.97927613 1.84965626 10.97927613 3 13 C3.66 12.67 4.32 12.34 5 12 C4.34 14.31 3.68 16.62 3 19 C2.01 18.67 1.02 18.34 0 18 C0 12.06 0 6.12 0 0 Z " fill="#932427" transform="translate(11,32)"/>
<path d="M0 0 C0.66 0.66 1.32 1.32 2 2 C4.57061311 2.64767793 4.57061311 2.64767793 7 3 C3.8745041 5.64465038 0.91211733 6.84414715 -3 8 C-2.74438677 5.6568787 -2.40729228 3.32156597 -2 1 C-1.34 0.67 -0.68 0.34 0 0 Z " fill="#D1191C" transform="translate(47,23)"/>
<path d="M0 0 C-1.38827146 3.35498935 -2.85585774 5.15050455 -6 7 C-7.32 7 -8.64 7 -10 7 C-7.88268985 1.88316713 -5.59548444 0 0 0 Z " fill="#A12627" transform="translate(38,29)"/>
<path d="M0 0 C-2.08293277 1.1257469 -4.16632908 2.25062083 -6.25 3.375 C-7.41015625 4.00148438 -8.5703125 4.62796875 -9.765625 5.2734375 C-12.16236626 6.55285735 -14.56088291 7.80459113 -17 9 C-16.8984375 7.20703125 -16.8984375 7.20703125 -16 5 C-13.1640625 3.26171875 -13.1640625 3.26171875 -9.625 1.6875 C-8.46226563 1.15511719 -7.29953125 0.62273438 -6.1015625 0.07421875 C-3 -1 -3 -1 0 0 Z " fill="#B21E1F" transform="translate(41,26)"/>
<path d="M0 0 C0.45375 0.61875 0.9075 1.2375 1.375 1.875 C2.97108919 4.05919833 2.97108919 4.05919833 5 6 C7.58354218 6.16687448 7.58354218 6.16687448 10 6 C9.67 6.66 9.34 7.32 9 8 C5.7 8 2.4 8 -1 8 C-0.67 5.36 -0.34 2.72 0 0 Z " fill="#E51E24" transform="translate(52,13)"/>
<path d="M0 0 C0.33 0.99 0.66 1.98 1 3 C-1.97 2.67 -4.94 2.34 -8 2 C-8.33 3.32 -8.66 4.64 -9 6 C-10.32 5.67 -11.64 5.34 -13 5 C-8.82383994 0.37639422 -6.09215567 -0.16922655 0 0 Z " fill="#C23033" transform="translate(66,3)"/>
<path d="M0 0 C2.31 0 4.62 0 7 0 C6.34 1.65 5.68 3.3 5 5 C4.34 5 3.68 5 3 5 C3 4.34 3 3.68 3 3 C2.34 2.67 1.68 2.34 1 2 C0.67 1.34 0.34 0.68 0 0 Z " fill="#E61B1B" transform="translate(58,5)"/>
<path d="M0 0 C8.16964286 0.66964286 8.16964286 0.66964286 11 4 C10.38511719 3.91621094 9.77023438 3.83242187 9.13671875 3.74609375 C8.32847656 3.64425781 7.52023438 3.54242188 6.6875 3.4375 C5.88699219 3.33308594 5.08648437 3.22867187 4.26171875 3.12109375 C1.83182884 2.85244822 1.83182884 2.85244822 -1 4 C-0.67 2.68 -0.34 1.36 0 0 Z " fill="#BA272B" transform="translate(13,3)"/>
<path d="M0 0 C0.66 0.33 1.32 0.66 2 1 C1.9071875 2.1446875 1.9071875 2.1446875 1.8125 3.3125 C1.74101915 6.04525312 1.74101915 6.04525312 3.5 7.8125 C3.995 8.204375 4.49 8.59625 5 9 C3.35 9 1.7 9 0 9 C-0.84454356 5.62182575 -1.10844919 3.32534757 0 0 Z " fill="#942421" transform="translate(31,48)"/>
<path d="M0 0 C0.66 0.33 1.32 0.66 2 1 C-0.31 3.64 -2.62 6.28 -5 9 C-5.66 8.34 -6.32 7.68 -7 7 C-6.34 7 -5.68 7 -5 7 C-4.731875 6.21625 -4.46375 5.4325 -4.1875 4.625 C-3 2 -3 2 0 0 Z " fill="#AA1E22" transform="translate(22,35)"/>
<path d="M0 0 C4.21878192 -0.19622241 7.17010894 0.19769832 11 2 C11 2.33 11 2.66 11 3 C9.35333797 2.8864371 7.70763918 2.75882619 6.0625 2.625 C5.14597656 2.55539063 4.22945312 2.48578125 3.28515625 2.4140625 C2.15400391 2.20910156 2.15400391 2.20910156 1 2 C0.67 1.34 0.34 0.68 0 0 Z " fill="#951C1F" transform="translate(30,71)"/>
<path d="M0 0 C0.33 0 0.66 0 1 0 C0.67 2.64 0.34 5.28 0 8 C-1.32 8 -2.64 8 -4 8 C-4 7.01 -4 6.02 -4 5 C-2.68 4.67 -1.36 4.34 0 4 C0 2.68 0 1.36 0 0 Z " fill="#C9191B" transform="translate(26,18)"/>
<path d="M0 0 C0.99 0 1.98 0 3 0 C1.70700306 2.88437779 0.34058637 4.87219421 -2 7 C-2 5.35 -2 3.7 -2 2 C-1.34 2 -0.68 2 0 2 C0 1.34 0 0.68 0 0 Z " fill="#BB191A" transform="translate(37,37)"/>
</svg>
